<?xml version="1.0" encoding="utf-8"?>
<!-- Generator: Adobe Illustrator 27.5.0, SVG Export Plug-In . SVG Version: 6.00 Build 0)  -->
<svg version="1.1" id="Layer_1" xmlns="http://www.w3.org/2000/svg" xmlns:xlink="http://www.w3.org/1999/xlink" x="0px" y="0px"
	 viewBox="0 0 230 28" style="enable-background:new 0 0 230 28;" xml:space="preserve">
<style type="text/css">
	.st0{fill:#013551;}
</style>
<g>
	<g>
		<path class="st0" d="M45.1,23.8h-5.4V10.6h5.2c2.5,0,4,1.4,4,3.6c0,1.4-0.9,2.5-1.8,2.8c1,0.4,2,1.4,2,3.1
			C49.1,22.5,47.4,23.8,45.1,23.8z M44.7,12.4h-3v3.8h3c1.3,0,2.2-0.7,2.2-1.9C46.9,13.1,46,12.4,44.7,12.4z M44.9,18h-3.2v4h3.2
			c1.4,0,2.2-0.9,2.2-2C47.1,18.8,46.3,18,44.9,18z"/>
		<path class="st0" d="M56.9,16.6c-0.4-0.4-0.8-0.6-1.4-0.6c-1,0-1.9,0.8-1.9,2.1v5.7h-1.9v-9.4h1.9v1c0.5-0.7,1.5-1.1,2.5-1.1
			c0.9,0,1.6,0.2,2.3,0.9L56.9,16.6z"/>
		<path class="st0" d="M65.4,22.8c-0.6,0.6-1.5,1.1-2.8,1.1c-0.8,0-1.4-0.2-1.9-0.5l-0.2,0.4h-1.3l0.6-1c-0.9-0.9-1.1-2.1-1.1-3.7
			c0-1.6,0.2-2.8,1.1-3.7c0.6-0.6,1.5-1.1,2.8-1.1c0.8,0,1.4,0.2,2,0.5l0.2-0.4H66l-0.6,1c0.9,0.9,1.1,2.1,1.1,3.7
			C66.5,20.7,66.3,21.9,65.4,22.8z M62.5,16c-0.6,0-1,0.2-1.4,0.5c-0.6,0.6-0.6,1.6-0.6,2.6c0,0.7,0,1.5,0.3,2l2.9-4.8
			C63.3,16.1,63,16,62.5,16z M64.3,17.1l-2.9,4.8c0.3,0.2,0.7,0.3,1.1,0.3c0.6,0,1-0.2,1.4-0.6c0.6-0.6,0.7-1.6,0.7-2.6
			C64.6,18.4,64.6,17.6,64.3,17.1z"/>
		<path class="st0" d="M74.6,23.8v-5.8c0-1.5-0.8-2.1-1.9-2.1c-1.1,0-2,0.7-2,2.1v5.8h-1.9v-9.4h1.9v0.9c0.7-0.7,1.6-1.1,2.5-1.1
			c1,0,1.8,0.3,2.3,0.9c0.7,0.7,0.9,1.6,0.9,2.7v6L74.6,23.8L74.6,23.8z"/>
		<path class="st0" d="M85,23.8v-5.8c0-1.5-0.8-2.1-1.9-2.1c-1.1,0-2,0.7-2,2.1v5.8h-1.9v-9.4h1.9v0.9c0.7-0.7,1.6-1.1,2.5-1.1
			c1,0,1.8,0.3,2.3,0.9c0.7,0.7,1,1.6,1,2.7v6L85,23.8L85,23.8z"/>
		<path class="st0" d="M95.9,22.8c-0.6,0.6-1.5,1.1-2.8,1.1c-0.8,0-1.4-0.2-1.9-0.5L91,23.9h-1.3l0.6-1c-0.9-0.9-1.1-2.1-1.1-3.7
			c0-1.6,0.2-2.8,1.1-3.7c0.6-0.6,1.5-1.1,2.8-1.1c0.8,0,1.4,0.2,2,0.5l0.2-0.4h1.3l-0.6,1c0.9,0.9,1.1,2.1,1.1,3.7
			C97.1,20.7,96.8,21.9,95.9,22.8z M93.1,16c-0.6,0-1,0.2-1.4,0.5c-0.6,0.6-0.7,1.6-0.7,2.6c0,0.7,0,1.5,0.3,2l2.9-4.8
			C93.9,16.1,93.5,16,93.1,16z M94.9,17.1L92,21.9c0.3,0.2,0.7,0.3,1.1,0.3c0.6,0,1-0.2,1.4-0.6c0.6-0.6,0.7-1.6,0.7-2.6
			C95.2,18.4,95.1,17.6,94.9,17.1z"/>
		<path class="st0" d="M102.4,25.7c-0.2,0.5-0.4,0.9-0.7,1.2c-0.5,0.5-1.2,0.7-1.9,0.7H99v-1.7h0.5c0.8,0,1.1-0.2,1.4-1l0.5-1.5
			l-3.3-9h2l2.3,6.6l2.2-6.6h2L102.4,25.7z"/>
		<path class="st0" d="M111,24c-1.5,0-2.8-0.3-4-1.4l1.2-1.2c0.8,0.8,1.8,1,2.7,1c1.2,0,2.1-0.4,2.1-1.3c0-0.6-0.4-1-1.3-1.1
			l-1.5-0.1c-1.8-0.1-2.8-1-2.8-2.6c0-1.8,1.6-2.9,3.6-2.9c1.4,0,2.6,0.3,3.5,1.1l-1.2,1.2c-0.6-0.5-1.4-0.7-2.3-0.7
			c-1.1,0-1.7,0.5-1.7,1.2c0,0.6,0.3,1,1.3,1.1l1.5,0.1c1.8,0.1,2.8,1,2.8,2.7C114.9,22.9,113.3,24,111,24z"/>
		<path class="st0" d="M122.8,23.8v-0.9c-0.7,0.7-1.6,1.1-2.5,1.1c-1,0-1.8-0.3-2.3-0.9c-0.7-0.7-0.9-1.6-0.9-2.7v-6h1.9v5.7
			c0,1.5,0.8,2.1,1.9,2.1c1.1,0,2-0.6,2-2.1v-5.7h1.9v9.4H122.8z"/>
		<path class="st0" d="M133.2,23.8v-5.8c0-1.5-0.8-2.1-1.9-2.1c-1.1,0-2,0.7-2,2.1v5.8h-1.9v-9.4h1.9v0.9c0.7-0.7,1.6-1.1,2.5-1.1
			c1,0,1.8,0.3,2.3,0.9c0.7,0.7,0.9,1.6,0.9,2.7v6L133.2,23.8L133.2,23.8z"/>
		<path class="st0" d="M143.2,23.8v-1c-0.7,0.9-1.5,1.1-2.5,1.1c-0.9,0-1.8-0.3-2.3-0.8c-1-0.9-1.1-2.6-1.1-4c0-1.4,0.1-3,1.1-4
			c0.5-0.5,1.3-0.8,2.3-0.8c1,0,1.8,0.2,2.5,1.1v-4.8h1.9v13.2H143.2L143.2,23.8z M141.2,16c-1.7,0-2,1.5-2,3.1c0,1.7,0.3,3.1,2,3.1
			c1.7,0,2-1.5,2-3.1C143.2,17.4,143,16,141.2,16z"/>
		<path class="st0" d="M153.1,16.6c-0.4-0.4-0.8-0.6-1.4-0.6c-1,0-1.9,0.8-1.9,2.1v5.7h-1.9v-9.4h1.9v1c0.5-0.7,1.5-1.1,2.5-1.1
			c0.9,0,1.6,0.2,2.3,0.9L153.1,16.6z"/>
		<path class="st0" d="M156.7,19.7c0,1.6,0.9,2.6,2.4,2.6c1.1,0,1.6-0.3,2.3-1l1.2,1.1c-1,1-1.9,1.5-3.5,1.5c-2.4,0-4.2-1.2-4.2-4.8
			c0-3.1,1.6-4.8,4-4.8c2.5,0,4,1.9,4,4.5v0.8L156.7,19.7L156.7,19.7z M160.7,17.1c-0.3-0.7-1-1.2-1.9-1.2s-1.6,0.5-1.9,1.2
			c-0.2,0.4-0.2,0.7-0.2,1.3h4.2C160.9,17.8,160.9,17.5,160.7,17.1z"/>
		<path class="st0" d="M168.3,27.8c-1.4,0-2.3-0.3-3.3-1.2l1.2-1.2c0.6,0.6,1.1,0.8,2,0.8c1.6,0,2.2-1.1,2.2-2.4v-1.2
			c-0.7,0.8-1.5,1.1-2.4,1.1c-0.9,0-1.7-0.3-2.3-0.8c-0.9-0.9-1.1-2.2-1.1-3.8c0-1.6,0.1-2.9,1.1-3.8c0.5-0.5,1.3-0.8,2.3-0.8
			c1,0,1.8,0.3,2.5,1.1v-1h1.8v9.4C172.4,26.1,170.8,27.8,168.3,27.8z M168.6,16c-1.7,0-1.9,1.5-1.9,3c0,1.5,0.2,3,1.9,3
			c1.7,0,1.9-1.5,1.9-3C170.5,17.5,170.3,16,168.6,16z"/>
		<path class="st0" d="M175.1,12.5v-2h2v2H175.1z M175.2,23.8v-9.4h1.9v9.4H175.2z"/>
		<path class="st0" d="M183,24c-1.5,0-2.8-0.3-4-1.4l1.2-1.2c0.8,0.8,1.8,1,2.7,1c1.2,0,2.1-0.4,2.1-1.3c0-0.6-0.4-1-1.3-1.1
			l-1.5-0.1c-1.8-0.1-2.8-1-2.8-2.6c0-1.8,1.6-2.9,3.6-2.9c1.4,0,2.6,0.3,3.5,1.1l-1.2,1.2c-0.6-0.5-1.4-0.7-2.3-0.7
			c-1.1,0-1.7,0.5-1.7,1.2c0,0.6,0.3,1,1.3,1.1l1.5,0.1c1.8,0.1,2.8,1,2.8,2.7C186.9,22.9,185.2,24,183,24z"/>
		<path class="st0" d="M191.6,23.8c-1.8,0-2.6-1.3-2.6-2.6V16H188v-1.4h1.1v-2.9h1.9v2.9h1.8V16H191v5.1c0,0.7,0.3,1.1,1,1.1h0.8
			v1.6H191.6z"/>
		<path class="st0" d="M200.2,16.6c-0.4-0.4-0.8-0.6-1.4-0.6c-1,0-1.9,0.8-1.9,2.1v5.7H195v-9.4h1.9v1c0.5-0.7,1.5-1.1,2.5-1.1
			c0.9,0,1.6,0.2,2.3,0.9L200.2,16.6z"/>
		<path class="st0" d="M203.8,19.7c0,1.6,0.9,2.6,2.4,2.6c1.1,0,1.6-0.3,2.3-1l1.2,1.1c-1,1-1.9,1.5-3.5,1.5c-2.4,0-4.2-1.2-4.2-4.8
			c0-3.1,1.6-4.8,4-4.8c2.5,0,4,1.9,4,4.5v0.8L203.8,19.7L203.8,19.7z M207.8,17.1c-0.3-0.7-1-1.2-1.9-1.2c-0.9,0-1.6,0.5-1.9,1.2
			c-0.2,0.4-0.2,0.7-0.2,1.3h4.2C208,17.8,208,17.5,207.8,17.1z"/>
		<path class="st0" d="M218,23.8v-5.8c0-1.5-0.8-2.1-1.9-2.1c-1.1,0-2,0.7-2,2.1v5.8h-1.9v-9.4h1.9v0.9c0.7-0.7,1.6-1.1,2.5-1.1
			c1,0,1.8,0.3,2.3,0.9c0.7,0.7,1,1.6,1,2.7v6L218,23.8L218,23.8z"/>
		<path class="st0" d="M224,19.7c0,1.6,0.9,2.6,2.4,2.6c1.1,0,1.6-0.3,2.3-1l1.2,1.1c-1,1-1.9,1.5-3.5,1.5c-2.4,0-4.2-1.2-4.2-4.8
			c0-3.1,1.6-4.8,4-4.8c2.5,0,4,1.9,4,4.5v0.8L224,19.7L224,19.7z M228,17.1c-0.3-0.7-1-1.2-1.9-1.2c-0.9,0-1.6,0.5-1.9,1.2
			c-0.2,0.4-0.2,0.7-0.2,1.3h4.2C228.3,17.8,228.2,17.5,228,17.1z"/>
	</g>
	<rect class="st0" width="7.9" height="2.6"/>
	<rect x="10.6" class="st0" width="8" height="2.6"/>
	<rect x="21.2" class="st0" width="8" height="2.6"/>
	<rect y="5.3" class="st0" width="7.9" height="2.7"/>
	<rect x="10.6" y="5.3" class="st0" width="8" height="2.7"/>
	<rect x="21.2" y="5.3" class="st0" width="8" height="2.7"/>
	<rect y="10.6" class="st0" width="7.9" height="2.7"/>
	<rect x="10.6" y="10.6" class="st0" width="8" height="2.7"/>
	<rect y="15.9" class="st0" width="7.9" height="2.6"/>
	<rect x="10.6" y="15.9" class="st0" width="8" height="2.6"/>
	<rect y="21.2" class="st0" width="7.9" height="2.6"/>
	<rect x="10.6" y="21.2" class="st0" width="8" height="2.6"/>
</g>
</svg>
